<svg width="18" height="18" viewBox="0 0 18 18" fill="none" xmlns="http://www.w3.org/2000/svg">
<path d="M17.0138 1.04965C16.5889 0.616289 15.9601 0.454842 15.3738 0.624786L1.70177 4.57599C1.4045 4.65662 1.13623 4.82002 0.928186 5.04717C0.720144 5.27431 0.580884 5.55587 0.52661 5.85907C0.405949 6.49296 0.827411 7.2985 1.37803 7.63499L5.65298 10.2453C5.86595 10.3762 6.1168 10.4314 6.36503 10.4021C6.61326 10.3728 6.84437 10.2607 7.02103 10.0839L11.9154 5.18779C11.9737 5.12713 12.0436 5.07888 12.121 5.04591C12.1984 5.01295 12.2817 4.99596 12.3658 4.99596C12.4499 4.99596 12.5331 5.01295 12.6105 5.04591C12.6879 5.07888 12.7579 5.12713 12.8161 5.18779C13.0625 5.43421 13.0625 5.83358 12.8161 6.08849L7.91324 10.9837C7.73615 11.1601 7.62359 11.391 7.59369 11.6392C7.56378 11.8874 7.61828 12.1384 7.74839 12.3518L10.3604 16.6429C10.6663 17.151 11.1932 17.4416 11.771 17.4416C11.839 17.4416 11.9154 17.4416 11.9834 17.4314C12.6462 17.3473 13.173 16.8961 13.3684 16.2588L17.4216 2.68961C17.6001 2.1118 17.4386 1.483 17.0138 1.04965Z" fill="white"/>
<path d="M6.83755 15.1243C6.95674 15.2441 7.02365 15.4061 7.02365 15.5751C7.02365 15.744 6.95674 15.9061 6.83755 16.0259L5.67683 17.1857C5.61788 17.2452 5.54772 17.2923 5.47041 17.3244C5.3931 17.3565 5.31019 17.3729 5.22648 17.3727C5.10034 17.373 4.97695 17.3358 4.87199 17.2658C4.76702 17.1958 4.68522 17.0963 4.63696 16.9797C4.5887 16.8632 4.57617 16.7349 4.60095 16.6112C4.62572 16.4875 4.6867 16.374 4.77613 16.285L5.936 15.1243C6.05575 15.0051 6.21782 14.9382 6.38678 14.9382C6.55573 14.9382 6.71781 15.0051 6.83755 15.1243ZM6.17222 11.9056C6.29141 12.0253 6.35832 12.1874 6.35832 12.3563C6.35832 12.5253 6.29141 12.6874 6.17222 12.8071L5.0115 13.967C4.95255 14.0264 4.88238 14.0735 4.80507 14.1056C4.72777 14.1377 4.64485 14.1541 4.56115 14.1539C4.43501 14.1542 4.31162 14.117 4.20666 14.0471C4.10169 13.9771 4.01989 13.8775 3.97163 13.761C3.92337 13.6444 3.91084 13.5162 3.93561 13.3925C3.96039 13.2688 4.02137 13.1552 4.1108 13.0663L5.27067 11.9056C5.39038 11.7866 5.55227 11.7199 5.72102 11.7199C5.88977 11.7199 6.05166 11.7866 6.17137 11.9056H6.17222ZM2.97642 10.8927C3.09535 11.0124 3.1621 11.1743 3.1621 11.343C3.1621 11.5118 3.09535 11.6737 2.97642 11.7934L1.81485 12.955C1.7559 13.0144 1.68573 13.0615 1.60842 13.0936C1.53112 13.1257 1.4482 13.1421 1.3645 13.1419C1.23835 13.1422 1.11497 13.105 1.01 13.035C0.905041 12.9651 0.823236 12.8655 0.774978 12.7489C0.726719 12.6324 0.714183 12.5041 0.738962 12.3805C0.763741 12.2568 0.824717 12.1432 0.914147 12.0543L2.07402 10.8935C2.19373 10.7746 2.35562 10.7079 2.52437 10.7079C2.69311 10.7079 2.85501 10.7746 2.97472 10.8935L2.97642 10.8927Z" fill="white"/>
</svg>
